<?xml version="1.0" encoding="UTF-8"?>
<svg id="Layer_2" xmlns="http://www.w3.org/2000/svg" xmlns:xlink="http://www.w3.org/1999/xlink" viewBox="0 0 1281 236.39">
  <defs>
    <clipPath id="clippath">
      <rect width="1281" height="236.39" style="fill: none;"/>
    </clipPath>
    <filter id="drop-shadow-1" filterUnits="userSpaceOnUse">
      <feOffset dx="0" dy="-5"/>
      <feGaussianBlur result="blur" stdDeviation="10"/>
      <feFlood flood-color="#000" flood-opacity=".35"/>
      <feComposite in2="blur" operator="in"/>
      <feComposite in="SourceGraphic"/>
    </filter>
    <filter id="drop-shadow-2" filterUnits="userSpaceOnUse">
      <feOffset dx="0" dy="-5"/>
      <feGaussianBlur result="blur-2" stdDeviation="10"/>
      <feFlood flood-color="#000" flood-opacity=".35"/>
      <feComposite in2="blur-2" operator="in"/>
      <feComposite in="SourceGraphic"/>
    </filter>
    <filter id="drop-shadow-3" filterUnits="userSpaceOnUse">
      <feOffset dx="0" dy="-5"/>
      <feGaussianBlur result="blur-3" stdDeviation="10"/>
      <feFlood flood-color="#000" flood-opacity=".25"/>
      <feComposite in2="blur-3" operator="in"/>
      <feComposite in="SourceGraphic"/>
    </filter>
  </defs>
  <g id="Layer_8">
    <g style="clip-path: url(#clippath);">
      <path d="M1249.21,104.96c-13.36-3.23-28.5-3.28-43.84.55-36.74,9.17-62.17,37.46-61.55,66.15-.22.05-.44.09-.66.15-21,5.24-33.81,26.67-28.62,47.86,1.58,6.43,4.64,12.1,8.71,16.73h157.21V76.79c-13.84,5.33-24.75,15.56-31.24,28.17Z" style="fill: #ffccdb; filter: url(#drop-shadow-1);"/>
      <path d="M963.42,168.51c-6.37-.29-12.58.23-18.56,1.47-7.25-5.88-16.34-9.58-26.34-10.03-15.72-.71-29.92,6.74-38.59,18.64-8.42-18.45-24.62-32.64-44.54-38.11-3.2-7.39-10.35-12.7-18.87-13.08-5.92-.27-11.38,1.89-15.46,5.6-7.86-7.04-18.07-11.52-29.38-12.03-13.38-.61-25.71,4.45-34.73,13.05-13.01-12.61-30.42-20.7-49.86-21.59-25.27-1.15-48.25,10.14-63.12,28.5-6.31-3.61-13.52-5.82-21.26-6.17-6.39-.29-12.54.72-18.2,2.78-10.7-7.4-23.5-11.99-37.41-12.62-29.23-1.32-55.14,15.15-67.51,39.91-8.19-8.95-19.74-14.78-32.75-15.37-7.9-.36-15.42,1.26-22.13,4.41-1.93-15.52-14.69-27.84-30.7-28.57-12.27-.56-23.25,5.85-29.2,15.75-14.6-11.42-32.71-18.56-52.57-19.46-31.78-1.44-60.53,13.44-78.31,37.3-6.19-2.76-12.98-4.45-20.15-4.77-9.6-.44-18.74,1.59-26.83,5.53-6.17-12.1-18.4-20.63-32.84-21.29-4.77-.22-9.38.45-13.68,1.85.65-3.59,1.09-7.26,1.26-11.01,1.98-44.44-32.11-82.08-76.14-84.08-7.43-.34-14.66.37-21.56,1.98C33.92,31.63,18.69,19.82.65,14.25v222.14h1034.44c-3.92-36.77-33.94-66.17-71.67-67.88ZM397.52,190.31c.07-.01.14-.02.2-.03-.03.18-.04.36-.07.54-.05-.17-.09-.34-.14-.51Z" style="fill: #ffccdb; filter: url(#drop-shadow-2);"/>
      <path d="M1202.39,175.14c-4.89-2.54-10.47-3.91-16.36-3.74-4.12.12-8.05.97-11.66,2.44-10.62-20.51-32.17-34.25-56.65-33.56-27.16.76-49.74,19.05-57.41,43.83-11.71-6.85-25.38-10.62-39.91-10.22-22.6.63-42.61,11.22-56,27.49-3.98-.81-8.1-1.23-12.3-1.22-6.5-15.84-22.18-26.78-40.18-26.28-15.27.43-28.41,8.97-35.49,21.43-7.31-1.75-14.95-2.58-22.81-2.36-13.63.38-26.45,3.87-37.81,9.77-15.7-18.86-35.46-29.72-56.76-28.79-12.71.55-24.72,5.26-35.53,13.24-10.56-15.36-28.35-25.22-48.26-24.67-5.29.15-10.39,1.04-15.21,2.54-10.71-14.09-27.72-22.98-46.66-22.46-23.84.67-43.83,16.07-51.66,37.31-8.12-20.33-26.62-35.75-49.72-38.69-31.92-4.06-61.22,17.14-68.16,48.15-3.33-.09-6.58.33-9.67,1.18-7.16-5.87-15.98-9.86-25.81-11.11-20.65-2.63-39.97,7.54-50.15,24.38-5.3-6.82-13.16-11.61-22.36-12.78-5.58-.71-11.01,0-15.94,1.85-.49-11.11-8.84-20.58-20.15-22.02-8.68-1.1-16.84,2.81-21.61,9.49-9.7-8.94-22.13-15.06-36.16-16.85-22.46-2.86-43.69,6.03-57.66,21.91-4.24-2.32-8.96-3.9-14.03-4.55-6.78-.86-13.38.05-19.34,2.37-3.69-8.93-11.88-15.69-22.08-16.98-3.37-.43-6.68-.22-9.81.52.67-2.51,1.19-5.08,1.52-7.73,3.93-31.38-18.11-60.02-49.22-63.98-5.25-.67-10.42-.57-15.42.17-8.45-15.57-23.92-26.98-42.72-29.38-4.48-.57-8.9-.58-13.21-.12v170.7h1281v-123.99c-35.16,7.08-64.12,30.93-78.61,62.74ZM298.51,217.11c.06,0,.11,0,.17-.01-.03.15-.06.31-.09.46-.03-.15-.05-.3-.08-.45Z" style="fill: #fff; filter: url(#drop-shadow-3);"/>
    </g>
  </g>
</svg>