<?xml version="1.0" encoding="UTF-8"?>
<svg id="Layer_3" xmlns="http://www.w3.org/2000/svg" xmlns:xlink="http://www.w3.org/1999/xlink" viewBox="0 0 1280 203.18">
  <defs>
    <filter id="drop-shadow-1" filterUnits="userSpaceOnUse">
      <feOffset dx="0" dy="10"/>
      <feGaussianBlur result="blur" stdDeviation="10"/>
      <feFlood flood-color="#000" flood-opacity=".15"/>
      <feComposite in2="blur" operator="in"/>
      <feComposite in="SourceGraphic"/>
    </filter>
  </defs>
  <g style="filter: url(#drop-shadow-1);">
    <path d="M548.57,48.62c.13-11.61-.38-48.62-33.53-48.6-9.81,0-515.03-.01-515.03-.01l.28,173.64c7.12,2.71,10.13,2.51,18.22,2.27,22.86-.7,42.3-14.22,51.67-33.44,3.54.71,7.21,1.05,10.97.93,18.11-.56,33.57-11.08,41.28-26.14,7.57,4.39,16.41,6.8,25.8,6.51,5.81-.18,11.35-1.37,16.45-3.4,11.58,29.33,40.6,49.68,73.94,48.66,18.41-.56,35.1-7.56,48.01-18.75,10.81,9.1,24.88,14.41,40.12,13.95,23.49-.72,43.38-14.97,52.43-35.05,10.59,3.74,22.47,5.68,34.99,5.3,34.39-1.05,63-19.23,72.3-43.42,5.08,2.14,10.69,3.26,16.56,3.08,21.82-.67,45.31-23.67,45.54-45.5Z" style="fill: #ffdce5;"/>
    <path d="M587.12,0c-10.38,7.42-16.42,20.85-16.46,33.06-.11,29.88,25.3,50.67,55.06,53.31,4.55.4,9.01.23,13.33-.46,5.01,4.4,11.4,7.31,18.55,7.94,11.23,1,21.63-3.84,28.2-12.01,4.88,11.95,14.33,21.68,26.37,26.82.44,7.55,6.33,13.85,14.09,14.54,2.21.2,4.35-.09,6.33-.76,5.55,6.12,13.32,10.25,22.19,11.04,4.14.37,8.16-.02,11.95-1.05,8.25,21.59,28.21,37.73,52.78,39.91,32.27,2.87,60.98-19.38,66.82-50.59,3.35-.04,6.61-.57,9.69-1.53,7.43,5.59,16.45,9.24,26.39,10.13,20.88,1.86,39.95-9.02,49.57-26.19,5.59,6.61,13.67,11.1,22.97,11.93,5.64.5,11.08-.41,15.98-2.44.9,11.07,9.66,20.21,21.09,21.22,8.77.78,16.84-3.42,21.4-10.27,10.1,8.56,22.83,14.2,37.02,15.46,22.71,2.02,43.75-7.64,57.22-24.01,4.35,2.16,9.16,3.56,14.28,4.02,6.86.61,13.46-.54,19.38-3.08,4.04,8.78,12.53,15.21,22.85,16.13,3.41.3,6.73-.03,9.85-.88-.58,2.53-1.01,5.11-1.24,7.77-2.8,31.46,20.44,59.23,51.9,62.02,5.31.47,10.51.18,15.5-.74,2.06,3.45,0-201.28,0-201.28h-693.06ZM1031.45,88.27c.03.13.06.25.09.37-.05,0-.1.01-.16.02.02-.13.04-.26.07-.39Z" style="fill: #ffdce5;"/>
    <path d="M534.05,0c7.36,19.31,26.43,29.84,48.4,31.13,4.57.27,9.03-.04,13.33-.86,5.14,4.25,11.63,6.97,18.8,7.39,11.27.66,21.53-4.5,27.87-12.87,5.25,11.82,15,21.27,27.2,26.05.66,7.55,6.75,13.67,14.54,14.13,2.22.13,4.36-.22,6.32-.95,5.74,5.96,13.64,9.86,22.55,10.39,4.15.24,8.17-.27,11.93-1.41,8.9,21.36,29.37,36.92,54.02,38.37,32.39,1.9,60.46-21.23,65.37-52.63,3.36-.14,6.6-.77,9.65-1.82,7.6,5.37,16.75,8.76,26.72,9.35,20.96,1.23,39.72-10.22,48.83-27.7,5.79,6.44,14.02,10.7,23.35,11.25,5.66.33,11.08-.74,15.92-2.92,1.23,11.05,10.27,19.94,21.75,20.61,8.8.52,16.75-3.93,21.11-10.92,10.36,8.26,23.28,13.53,37.52,14.37,22.79,1.34,43.56-8.96,56.55-25.74,4.42,2.03,9.27,3.29,14.42,3.59,6.88.4,13.46-.95,19.3-3.66,4.31,8.67,13,14.85,23.35,15.46,3.42.2,6.74-.23,9.83-1.18-.5,2.55-.85,5.15-1.01,7.81-1.86,31.57,22.23,58.67,53.8,60.52,5.33.31,10.53-.13,15.5-1.21,9.54,14.97,19.95,24.65,39.03,25.77.49.03,0-152.33,0-152.33h-745.95ZM988.61,20.88c.03.12.07.25.1.37-.05,0-.1.01-.16.02.02-.13.03-.26.05-.39Z" style="fill: #fff;"/>
    <path d="M564.4,0H0s-.43,86.19,0,86.15c9.83,26.91,32.67,46.35,62.94,45.9,26.7-.4,49.64-15.87,60.87-38.18,11.22,5.87,24.02,9.11,37.58,8.9,3.97-.06,7.87-.42,11.68-1.05,10.77,27.39,37.64,46.6,68.8,46.13,31.56-.47,58.11-20.98,67.76-49.23,2.17.13,4.36.18,6.57.15,31.61-.54,59.41-18.48,76.54-45.7,11.23,6.17,24.16,9.61,37.89,9.41,10.38-.16,20.25-2.39,29.21-6.28,11.72,11.65,31.96,19.26,54.81,19.03,35.6-.35,64.03-19.56,63.5-42.91-.18-7.67,1.49-22.95-13.73-32.31Z" style="fill: #fff;"/>
  </g>
</svg>