<?xml version="1.0" encoding="UTF-8"?>
<svg id="Layer_4" xmlns="http://www.w3.org/2000/svg" xmlns:xlink="http://www.w3.org/1999/xlink" viewBox="0 0 1280 236.29">
  <defs>
    <filter id="drop-shadow-1" filterUnits="userSpaceOnUse">
      <feOffset dx="0" dy="-5"/>
      <feGaussianBlur result="blur" stdDeviation="10"/>
      <feFlood flood-color="#000" flood-opacity=".35"/>
      <feComposite in2="blur" operator="in"/>
      <feComposite in="SourceGraphic"/>
    </filter>
    <filter id="drop-shadow-2" filterUnits="userSpaceOnUse">
      <feOffset dx="0" dy="-5"/>
      <feGaussianBlur result="blur-2" stdDeviation="10"/>
      <feFlood flood-color="#000" flood-opacity=".35"/>
      <feComposite in2="blur-2" operator="in"/>
      <feComposite in="SourceGraphic"/>
    </filter>
    <filter id="drop-shadow-3" filterUnits="userSpaceOnUse">
      <feOffset dx="0" dy="-5"/>
      <feGaussianBlur result="blur-3" stdDeviation="10"/>
      <feFlood flood-color="#000" flood-opacity=".25"/>
      <feComposite in2="blur-3" operator="in"/>
      <feComposite in="SourceGraphic"/>
    </filter>
  </defs>
  <path d="M1248.76,104.96c-13.36-3.23-28.5-3.28-43.85.55-36.74,9.17-62.17,37.46-61.56,66.15-.22.05-.44.09-.66.15-21,5.24-33.81,26.67-28.62,47.86,1.58,6.43,4.64,12.1,8.71,16.73h157.22V76.79c-13.84,5.33-24.75,15.56-31.24,28.17Z" style="fill: #ffccdb; filter: url(#drop-shadow-1);"/>
  <path d="M962.84,168.51c-6.37-.29-12.58.23-18.56,1.47-7.25-5.88-16.34-9.58-26.34-10.03-15.72-.71-29.92,6.74-38.59,18.64-8.42-18.45-24.62-32.64-44.54-38.11-3.2-7.39-10.35-12.7-18.87-13.08-5.92-.27-11.39,1.89-15.46,5.6-7.86-7.04-18.07-11.52-29.39-12.03-13.38-.61-25.71,4.45-34.74,13.05-13.01-12.61-30.42-20.7-49.86-21.59-25.28-1.15-48.25,10.14-63.12,28.5-6.31-3.61-13.52-5.82-21.26-6.17-6.39-.29-12.54.72-18.2,2.78-10.7-7.4-23.5-11.99-37.42-12.62-29.23-1.32-55.15,15.15-67.52,39.91-8.19-8.95-19.74-14.78-32.76-15.37-7.9-.36-15.42,1.26-22.13,4.41-1.93-15.52-14.7-27.84-30.7-28.57-12.27-.56-23.25,5.85-29.2,15.75-14.6-11.42-32.72-18.56-52.57-19.46-31.78-1.44-60.54,13.44-78.32,37.3-6.19-2.76-12.98-4.45-20.15-4.77-9.6-.44-18.74,1.59-26.83,5.53-6.17-12.1-18.4-20.63-32.84-21.29-4.77-.22-9.38.45-13.68,1.85.65-3.59,1.09-7.26,1.26-11.01,1.98-44.44-32.11-82.08-76.14-84.08-7.43-.34-14.66.37-21.57,1.98C33.27,31.63,18.04,19.82,0,14.25v222.14h1034.52c-3.92-36.77-33.94-66.17-71.68-67.88ZM396.9,190.31c.07-.01.14-.02.2-.03-.03.18-.04.36-.07.54-.05-.17-.09-.34-.14-.51Z" style="fill: #ffccdb; filter: url(#drop-shadow-2);"/>
  <path d="M1201.45,175.14c-4.89-2.54-10.46-3.91-16.35-3.74-4.12.12-8.04.97-11.66,2.44-10.61-20.51-32.15-34.25-56.61-33.56-27.14.76-49.7,19.05-57.36,43.83-11.7-6.85-25.36-10.62-39.88-10.22-22.59.63-42.57,11.22-55.96,27.49-3.98-.81-8.09-1.23-12.29-1.22-6.5-15.84-22.16-26.78-40.15-26.28-15.25.43-28.39,8.97-35.46,21.43-7.3-1.75-14.94-2.58-22.8-2.36-13.62.38-26.43,3.87-37.78,9.77-15.69-18.86-35.43-29.72-56.72-28.79-12.7.55-24.7,5.26-35.5,13.24-10.55-15.36-28.33-25.22-48.22-24.67-5.29.15-10.38,1.04-15.2,2.54-10.7-14.09-27.7-22.98-46.63-22.46-23.82.67-43.8,16.07-51.62,37.31-8.12-20.33-26.6-35.75-49.68-38.69-31.89-4.06-61.17,17.14-68.11,48.15-3.33-.09-6.58.33-9.67,1.18-7.16-5.87-15.97-9.86-25.79-11.11-20.64-2.63-39.94,7.54-50.11,24.38-5.3-6.82-13.15-11.61-22.34-12.78-5.58-.71-11,0-15.93,1.85-.49-11.11-8.83-20.58-20.13-22.02-8.67-1.1-16.82,2.81-21.6,9.49-9.7-8.94-22.11-15.06-36.14-16.85-22.44-2.86-43.66,6.03-57.61,21.91-4.23-2.32-8.95-3.9-14.02-4.55-6.78-.86-13.37.05-19.33,2.37-3.68-8.93-11.87-15.69-22.07-16.98-3.37-.43-6.68-.22-9.8.52.67-2.51,1.19-5.08,1.52-7.73,3.92-31.38-18.1-60.02-49.19-63.98-5.25-.67-10.41-.57-15.4.17-8.44-15.57-23.9-26.98-42.68-29.38C8.72,65.24,4.3,65.23,0,65.69v170.7h1280v-123.99c-35.13,7.08-64.07,30.93-78.55,62.74ZM298.28,217.11c.06,0,.11,0,.17-.01-.03.15-.06.31-.09.46-.03-.15-.05-.3-.08-.45Z" style="fill: #fff; filter: url(#drop-shadow-3);"/>
</svg>